<svg width="10" height="17" viewBox="0 0 10 17" fill="none" xmlns="http://www.w3.org/2000/svg">
<path d="M2.41558 16.9999C2.36048 16.9999 2.31217 16.9867 2.264 16.9671C2.1192 16.9014 2.04349 16.7504 2.07795 16.5994L3.60797 10.0202L0.224146 8.80542C0.120739 8.76599 0.038101 8.68726 0.0105547 8.58214C-0.0169916 8.47703 0.0105542 8.37205 0.0794919 8.28673L7.32253 0.118674C7.42594 0.000505677 7.59813 -0.032334 7.736 0.0333453C7.8808 0.0990246 7.95651 0.250032 7.92205 0.401033L6.39203 6.98022L9.77585 8.19499C9.87926 8.23443 9.9619 8.31316 9.98945 8.41828C10.017 8.52339 9.98945 8.62837 9.92051 8.71369L2.67747 16.8884C2.60853 16.9606 2.51205 17 2.41557 17L2.41558 16.9999ZM0.920007 8.35911L4.12473 9.50821C4.28323 9.56729 4.37971 9.7249 4.33832 9.88909L3.04958 15.444L9.07314 8.6481L5.86841 7.499C5.70991 7.43992 5.61343 7.28231 5.65482 7.11812L6.94356 1.56324L0.920007 8.35911Z" fill="#363636"/>
</svg>
