<svg width="19" height="17" viewBox="0 0 19 17" fill="none" xmlns="http://www.w3.org/2000/svg">
<path d="M9.95493 17H9.07065L1.59175 9.45564C-0.530584 7.28913 -0.530584 3.79758 1.59175 1.6311C2.6277 0.586083 3.99196 0 5.45745 0C6.92293 0 8.28723 0.586246 9.32314 1.6311L9.5 1.80951L9.67686 1.6311C10.7128 0.586083 12.0771 0 13.5426 0C15.008 0 16.3723 0.586246 17.4082 1.6311C19.5306 3.79762 19.5306 7.28917 17.4082 9.45564L9.95493 17ZM5.45777 1.27432C4.34601 1.27432 3.28484 1.70762 2.47636 2.52317C0.834036 4.17987 0.834036 6.88151 2.47636 8.53801L9.50047 15.649L16.4994 8.56341C18.1417 6.90671 18.1417 4.20507 16.4994 2.54857C15.7161 1.73302 14.655 1.29972 13.518 1.29972C12.4062 1.29972 11.3451 1.73302 10.5366 2.54857L9.93016 3.16029H9.04588L8.43946 2.54857C7.6562 1.73285 6.59504 1.27412 5.45805 1.27412L5.45777 1.27432Z" fill="#363636"/>
</svg>
