<svg width="22" height="10" viewBox="0 0 22 10" fill="none" xmlns="http://www.w3.org/2000/svg">
<path d="M18.9869 10C17.6724 10 16.5243 9.12936 16.1259 7.87964H5.87509C5.47572 9.12936 4.32859 10 3.01407 10C1.35197 10 0 8.61868 0 6.91981C0 6.22191 0.239557 5.54331 0.668031 5C0.239549 4.45575 0 3.77809 0 3.08019C0 1.38116 1.35209 0 3.01407 0C4.32859 0 5.47572 0.870638 5.87509 2.12036H16.1259C16.5262 0.870638 17.6724 0 18.9869 0C20.649 0 22 1.38132 22 3.08019C22 3.77809 21.7614 4.45575 21.332 5C21.7614 5.54331 22 6.22191 22 6.91981C22 8.61884 20.6488 10 18.9869 10ZM5.51192 6.91981H16.4895C16.7151 6.91981 16.9095 7.08388 16.9499 7.31143C17.1341 8.3135 17.99 9.04015 18.9869 9.04015C20.1304 9.04015 21.0605 8.08884 21.0605 6.91979C21.0605 6.32186 20.8162 5.766 20.3736 5.35512C20.2759 5.26401 20.2194 5.13529 20.2194 4.99999C20.2194 4.86469 20.2757 4.73597 20.3736 4.64485C20.817 4.23396 21.0605 3.67828 21.0605 3.08018C21.0605 1.91097 20.1302 0.959821 18.9869 0.959821C17.99 0.959821 17.1341 1.68648 16.9499 2.68855C16.9095 2.91513 16.7151 3.08016 16.4895 3.08016H5.51192C5.28542 3.08016 5.09101 2.91609 5.05058 2.68855C4.86639 1.68648 4.01056 0.959821 3.01459 0.959821C1.87012 0.959821 0.940035 1.91113 0.940035 3.08018C0.940035 3.67812 1.18431 4.23397 1.62772 4.64485C1.7254 4.73597 1.78186 4.86469 1.78186 4.99999C1.78186 5.13529 1.72555 5.26401 1.62772 5.35512C1.18337 5.76602 0.940035 6.32169 0.940035 6.91979C0.940035 8.08901 1.87121 9.04015 3.01459 9.04015C4.01056 9.04015 4.8664 8.3135 5.05058 7.31143C5.091 7.08388 5.28542 6.91981 5.51192 6.91981Z" fill="#363636"/>
</svg>
