<svg width="18" height="17" viewBox="0 0 18 17" fill="none" xmlns="http://www.w3.org/2000/svg">
<path d="M9.4272 6.56715e-08C7.24388 -0.000269493 5.14326 0.829307 3.55526 2.31806L2.7464 0.934937C2.64224 0.755173 2.44965 0.64441 2.24105 0.64441C2.03218 0.64441 1.83959 0.75518 1.73543 0.934937L0.300481 3.40388C0.00101225 3.91837 -0.0784647 4.53069 0.0794047 5.10424C0.237003 5.67748 0.619205 6.16419 1.14027 6.4561C0.565749 8.76119 0.987824 11.2003 2.30426 13.1822C3.62094 15.1642 5.71205 16.5087 8.07148 16.8898C10.4306 17.2709 12.8429 16.6542 14.7238 15.1889C16.6047 13.7234 17.7828 11.543 17.9729 9.1757C18.1628 6.80859 17.3474 4.47011 15.7242 2.72719C14.1007 0.983991 11.8175 -0.00482902 9.4272 6.9548e-05L9.4272 6.56715e-08ZM1.31152 3.98329L2.24086 2.38374L3.1702 3.98329H3.17048C3.29661 4.20051 3.34191 4.45466 3.29797 4.7018C3.25429 4.94866 3.12436 5.17236 2.93095 5.33352C2.73754 5.49468 2.49341 5.58308 2.24114 5.58308C1.9886 5.58308 1.74447 5.49469 1.55106 5.33352C1.35765 5.17236 1.22773 4.94866 1.18405 4.7018C1.1401 4.45466 1.1854 4.20051 1.31154 3.98329H1.31152ZM9.4272 15.8095C7.16277 15.8122 5.02305 14.7776 3.62769 13.0056C2.23204 11.2332 1.73651 8.92119 2.28364 6.73787C3.0784 6.72871 3.80838 6.30127 4.20142 5.61486C4.5942 4.9287 4.59122 4.08678 4.19301 3.40354L4.17348 3.37254C5.89974 1.61644 8.39666 0.836468 10.8237 1.29548C13.2506 1.75445 15.2847 3.39117 16.2407 5.65452C17.1969 7.91814 16.9479 10.5067 15.5775 12.5491C14.2071 14.5916 11.8979 15.8158 9.42726 15.8096L9.4272 15.8095Z" fill="#363636"/>
<path d="M12.1688 5.4361C11.4177 5.43287 10.7143 5.80236 10.2944 6.4214C10.1954 6.54861 10.1542 6.71085 10.1802 6.86959C10.2065 7.02833 10.2977 7.16901 10.4325 7.25822C10.567 7.34743 10.733 7.3768 10.8904 7.33988C11.0477 7.30295 11.1828 7.20243 11.2628 7.06283C11.4202 6.83617 11.6586 6.6777 11.9293 6.61949C12.2003 6.56127 12.4832 6.60817 12.7206 6.74993C12.958 6.89196 13.1321 7.11834 13.2073 7.38354C13.2743 7.63607 13.5043 7.81205 13.7672 7.81232C13.8184 7.8134 13.8697 7.80693 13.9191 7.79292C14.228 7.71341 14.4152 7.40159 14.339 7.09353C14.2107 6.61893 13.9288 6.1993 13.5366 5.89959C13.1443 5.60017 12.6637 5.43712 12.1689 5.43604L12.1688 5.4361Z" fill="#363636"/>
<path d="M5.68219 7.39476C5.75732 7.12956 5.93147 6.90317 6.16882 6.76114C6.40617 6.61938 6.68909 6.57248 6.96011 6.6307C7.23082 6.68891 7.46926 6.84738 7.62659 7.07404C7.80806 7.34274 8.17453 7.4147 8.44524 7.2344C8.71568 7.0541 8.78811 6.68999 8.60664 6.42103C8.28465 5.9413 7.78882 5.6033 7.22238 5.47801C6.65573 5.35269 6.0625 5.44971 5.56606 5.74833C5.06993 6.04721 4.70859 6.52479 4.55832 7.08158C4.5179 7.23034 4.53852 7.38882 4.61583 7.52222C4.69341 7.65536 4.82089 7.75293 4.97036 7.79254C5.01973 7.80656 5.071 7.81303 5.12199 7.81195C5.38213 7.81464 5.61188 7.64351 5.68214 7.39475L5.68219 7.39476Z" fill="#363636"/>
<path d="M9.44679 10.1499C7.98877 10.1496 6.58742 10.7121 5.53849 11.7187C5.41344 11.8211 5.33695 11.9709 5.32745 12.1318C5.31795 12.2927 5.37654 12.4501 5.48884 12.5665C5.60088 12.683 5.75685 12.7476 5.91906 12.7449C6.08127 12.7425 6.23508 12.673 6.34358 12.5531C7.17773 11.7505 8.2934 11.3017 9.45469 11.3017C10.616 11.3017 11.7314 11.7505 12.5658 12.5531C12.7993 12.7635 13.159 12.7517 13.3776 12.5258C13.5965 12.3003 13.5952 11.9426 13.3744 11.7187C12.32 10.7088 10.9113 10.1461 9.44678 10.1499L9.44679 10.1499Z" fill="#363636"/>
</svg>
