<svg width="14" height="17" viewBox="0 0 14 17" fill="none" xmlns="http://www.w3.org/2000/svg">
<path d="M7.00001 17C6.9379 16.9993 6.87761 16.978 6.82787 16.9393L4.022 14.784H4.02213C2.7776 13.8215 1.766 12.5701 1.06783 11.1293C0.369534 9.68862 0.0039 8.09813 0 6.48422V2.42855C0 2.26091 0.1306 2.12498 0.291667 2.12498C0.755867 2.12498 1.2009 1.93308 1.52917 1.59157C1.85729 1.24991 2.04167 0.78671 2.04167 0.303568C2.04167 0.135929 2.17227 0 2.33333 0H11.6667C11.744 0 11.8182 0.0319833 11.8729 0.0889022C11.9276 0.145821 11.9583 0.223069 11.9583 0.303568C11.9583 0.78671 12.1427 1.2499 12.4708 1.59157C12.7991 1.93308 13.2441 2.12498 13.7083 2.12498C13.7857 2.12498 13.8599 2.15696 13.9146 2.21388C13.9693 2.2708 14 2.34805 14 2.42855V6.48422C13.9961 8.09802 13.6305 9.68848 12.9322 11.1293C12.234 12.5701 11.2224 13.8215 9.97787 14.784L7.172 16.9393H7.17213C7.12239 16.978 7.0621 16.9993 6.99999 17H7.00001ZM0.58334 2.71425V6.48439C0.587116 8.00387 0.93204 9.50124 1.59024 10.8572C2.24857 12.2133 3.20221 13.3906 4.37501 14.2952L7.00001 16.32L9.62501 14.2952C10.7978 13.3906 11.7514 12.2133 12.4098 10.8572C13.068 9.50113 13.4129 8.00376 13.4167 6.48439V2.71425C12.9023 2.64689 12.4242 2.40336 12.0577 2.02187C11.6911 1.64038 11.4571 1.14274 11.3924 0.607414H2.60744C2.54273 1.14274 2.30874 1.64034 1.94221 2.02187C1.57567 2.40336 1.09754 2.64691 0.583207 2.71425H0.58334Z" fill="#363636"/>
<path d="M8.16668 11.5357H5.83334C5.67228 11.5357 5.54168 11.3998 5.54168 11.2322V9.10718H3.50001C3.33894 9.10718 3.20834 8.97125 3.20834 8.80361V6.37506C3.20834 6.20742 3.33894 6.07149 3.50001 6.07149H5.54168V3.94651C5.54168 3.77887 5.67228 3.64294 5.83334 3.64294H8.16668C8.24402 3.64294 8.31824 3.67493 8.37293 3.73185C8.42761 3.78877 8.45834 3.86601 8.45834 3.94651V6.07149H10.5C10.5774 6.07149 10.6516 6.10347 10.7063 6.16039C10.7609 6.21731 10.7917 6.29456 10.7917 6.37506V8.80361C10.7917 8.88411 10.7609 8.96136 10.7063 9.01827C10.6516 9.07519 10.5774 9.10718 10.5 9.10718H8.45834V11.2322C8.45834 11.3127 8.42761 11.3899 8.37293 11.4468C8.31824 11.5037 8.24402 11.5357 8.16668 11.5357ZM6.12501 10.9286H7.87501V8.80361C7.87501 8.63597 8.00561 8.50004 8.16668 8.50004H10.2083V6.67863H8.16668C8.00561 6.67863 7.87501 6.5427 7.87501 6.37506V4.25008H6.12501V6.37506C6.12501 6.45556 6.09428 6.53281 6.03959 6.58973C5.98491 6.64664 5.91069 6.67863 5.83334 6.67863H3.79168V8.50004H5.83334C5.91069 8.50004 5.98491 8.53202 6.03959 8.58894C6.09428 8.64586 6.12501 8.72311 6.12501 8.80361V10.9286Z" fill="#363636"/>
</svg>
