<svg width="17" height="17" viewBox="0 0 17 17" fill="none" xmlns="http://www.w3.org/2000/svg">
<path d="M14.7967 5.03812C14.9476 3.35349 14.4873 2.26087 13.9967 1.59462C13.0777 0.346946 11.7076 0.00540595 11.043 0.000271056C11.0344 0.000135537 11.026 0 11.0175 0C9.82024 0 8.9038 0.656364 8.50019 1.00644C8.09658 0.656364 7.18014 0 5.98302 0C5.97462 0 5.96594 0.000135528 5.95741 0.000135528C5.29278 0.00528569 3.9226 0.346817 3.0037 1.59462C2.51294 2.26101 2.0527 3.3535 2.20356 5.03799C0.856552 5.46245 -0.0915982 6.99257 0.00704029 8.65878C0.0585418 9.55759 0.478409 10.3084 1.1906 10.8041C0.833063 11.8192 0.979311 12.9968 1.61114 14.0089C2.23471 15.008 3.21808 15.6418 4.2698 15.7465C4.27007 15.747 4.2702 15.7474 4.27034 15.748C4.58273 16.39 5.04571 16.7905 5.64663 16.9382C5.82187 16.9812 6.00048 17 6.17899 17C7.14761 17 8.10971 16.4461 8.50017 16.1921C8.89077 16.4462 9.85273 17 10.8215 17C11 17 11.1785 16.9812 11.3536 16.9382C11.9545 16.7906 12.4176 16.3901 12.7301 15.748C12.7304 15.7474 12.7305 15.747 12.7307 15.7465C13.7824 15.6419 14.7659 15.0079 15.3893 14.0087C16.021 12.9965 16.1674 11.8192 15.8099 10.8039C16.5219 10.3083 16.9414 9.55773 16.9929 8.65933C17.0919 6.99261 16.1438 5.46234 14.7967 5.03785L14.7967 5.03812ZM5.7902 16.3488C5.36747 16.2445 5.04887 15.9613 4.8163 15.4829C4.49429 14.8208 4.80018 14.3622 5.01106 14.1478C5.36967 13.7835 5.84902 13.6797 6.03443 13.7666C6.18622 13.8377 6.36688 13.7719 6.43776 13.6197C6.50864 13.4677 6.44291 13.2872 6.29085 13.2163C5.81635 12.9954 5.07977 13.2125 4.57819 13.7221C4.1895 14.1172 4.02428 14.6024 4.08284 15.1096C3.31129 14.9551 2.59935 14.4465 2.12596 13.6879C1.55023 12.7657 1.44143 11.6888 1.83472 10.807C2.04194 10.3427 2.37888 9.94668 2.83654 9.62995C2.97437 9.53454 3.00879 9.34534 2.91325 9.2075C2.8177 9.0698 2.62864 9.03511 2.4908 9.13079C2.0468 9.43831 1.70093 9.8136 1.44914 10.244C1.0515 9.94003 0.659829 9.43979 0.61306 8.62417C0.533098 7.2747 1.25003 6.04101 2.28454 5.65503C2.35257 6.06623 2.45191 6.50575 2.59557 6.98118C2.64409 7.14178 2.81309 7.23286 2.97396 7.18379C3.13429 7.13528 3.22523 6.96587 3.17657 6.80541C2.55681 4.75461 2.66603 3.07741 3.49249 1.95502C4.2707 0.898305 5.44815 0.611514 5.96209 0.607594C5.96887 0.607322 5.97551 0.607187 5.98256 0.607187C7.08656 0.607187 7.93607 1.30897 8.19559 1.55006V5.95913C7.52798 6.21609 6.9646 6.22029 6.52155 5.96604C5.57867 5.42473 5.39558 3.89734 5.39381 3.8819C5.37497 3.71561 5.22359 3.59526 5.05852 3.61424C4.89209 3.63294 4.77201 3.7827 4.7903 3.94912C4.79613 4.00184 4.90266 4.89214 5.38488 5.65866C4.29454 6.29563 4.06403 7.45619 4.10643 8.02717C4.11808 8.18682 4.25131 8.30839 4.40879 8.30839C4.41638 8.30839 4.42397 8.30812 4.43142 8.30757C4.59866 8.29524 4.72416 8.14968 4.71169 7.98244C4.71088 7.96929 4.63647 6.73869 5.76584 6.14033C5.89852 6.27288 6.04665 6.39337 6.2166 6.49135C6.53319 6.67363 6.88379 6.76471 7.2664 6.76471C7.55765 6.76471 7.86844 6.7086 8.19544 6.60302V9.66963C7.67879 9.46687 7.14795 9.48558 6.70788 9.73915C6.14002 10.0663 5.83686 10.7281 5.89688 11.5095C5.90921 11.6688 6.04217 11.7898 6.19924 11.7898C6.20697 11.7898 6.21496 11.7895 6.22282 11.789C6.39007 11.7761 6.51516 11.6303 6.50228 11.4631C6.45986 10.9125 6.64527 10.476 7.01105 10.2651C7.34513 10.0727 7.7791 10.1045 8.19544 10.3424V15.6657C7.82424 15.9087 6.69842 16.5724 5.79023 16.3485L5.7902 16.3488ZM16.3872 8.62456C16.3403 9.4399 15.9488 9.94 15.5513 10.244C15.2991 9.81329 14.9533 9.43789 14.5097 9.13063C14.3716 9.03508 14.1824 9.06964 14.0872 9.20734C13.9918 9.34517 14.0261 9.53437 14.1639 9.62979C14.6211 9.94624 14.9582 10.3425 15.1658 10.8069C15.5589 11.6885 15.4501 12.7654 14.8744 13.6876C14.401 14.4462 13.6889 14.9548 12.9175 15.1094C12.9761 14.602 12.8107 14.117 12.4223 13.7219C11.9204 13.2122 11.1845 12.9952 10.7094 13.2161C10.5576 13.287 10.4917 13.4675 10.5626 13.6196C10.6337 13.7717 10.814 13.8375 10.9661 13.7664C11.1513 13.6804 11.6307 13.783 11.9894 14.1477C12.2002 14.3623 12.5062 14.8208 12.1842 15.4827C11.9515 15.9611 11.6331 16.2444 11.2103 16.3486C10.2994 16.5728 9.17629 15.9091 8.80508 15.6658V10.3425C9.22129 10.1049 9.65484 10.0729 9.98919 10.2653C10.355 10.476 10.5403 10.9125 10.498 11.4632C10.4852 11.6303 10.6103 11.7763 10.7773 11.7891C10.7853 11.7897 10.7933 11.7899 10.801 11.7899C10.9581 11.7899 11.0913 11.6688 11.1034 11.5097C11.1635 10.7285 10.8602 10.0666 10.2925 9.73928C9.85229 9.48543 9.3216 9.46673 8.80509 9.66961V6.60329C9.13198 6.70886 9.44261 6.76483 9.73398 6.76483C10.1164 6.76483 10.4675 6.67362 10.7838 6.49134C10.9537 6.39349 11.102 6.273 11.2347 6.14033C12.3533 6.73136 12.292 7.92848 12.2887 7.98365C12.2768 8.15035 12.4023 8.29536 12.5688 8.3077C12.5766 8.30824 12.5843 8.30851 12.5916 8.30851C12.7491 8.30851 12.8822 8.18694 12.894 8.02729C12.9361 7.45631 12.7058 6.29579 11.6157 5.65878C12.0978 4.89223 12.2043 4.00195 12.2101 3.94924C12.2285 3.78254 12.1082 3.63252 11.9415 3.61408C11.7752 3.59809 11.6249 3.716 11.6064 3.88256C11.6047 3.89801 11.4265 5.42053 10.4808 5.96521C10.0372 6.22069 9.47338 6.21621 8.80508 5.95925V1.54949C9.0653 1.30608 9.93063 0.606889 11.0383 0.607583C11.5521 0.611649 12.7297 0.898291 13.5079 1.95487C14.3342 3.07719 14.4436 4.75446 13.8237 6.80526C13.775 6.96586 13.8658 7.13527 14.0264 7.18364C14.188 7.23243 14.3565 7.14136 14.4047 6.98103C14.5484 6.50574 14.6478 6.06608 14.7157 5.65488C15.7502 6.04072 16.467 7.27445 16.3872 8.62444L16.3872 8.62456Z" fill="#363636"/>
</svg>
